<svg width="77" height="71" viewBox="0 0 77 71" fill="none" xmlns="http://www.w3.org/2000/svg">
<g clip-path="url(#clip0_1710_4249)">
<path d="M25.8721 0.437954C24.3316 19.0382 19.0808 24.1082 0.437961 24.9962C19.0382 26.5366 24.1082 31.7875 24.9962 50.4303C26.5367 31.83 31.7875 26.76 50.4303 25.8721C31.83 24.3316 26.76 19.0807 25.8721 0.437954Z" fill="#0047FF"/>
</g>
<g clip-path="url(#clip1_1710_4249)">
<path d="M63.1303 43.0969C62.3227 53.1414 59.5904 55.881 49.8958 56.3671C59.5675 57.1924 62.2021 60.0261 62.6573 70.0927C63.4649 60.0482 66.1971 57.3086 75.8918 56.8225C66.2201 55.9972 63.5855 53.1636 63.1303 43.0969Z" fill="#0047FF"/>
</g>
<defs>
<clipPath id="clip0_1710_4249">
<rect width="50" height="50" fill="white" transform="translate(0.875916) rotate(1.00377)"/>
</clipPath>
<clipPath id="clip1_1710_4249">
<rect width="26" height="27" fill="white" transform="translate(50.1323 42.8691) rotate(1.00377)"/>
</clipPath>
</defs>
</svg>
