<svg width="81" height="12" viewBox="0 0 81 12" fill="none" xmlns="http://www.w3.org/2000/svg">
<path d="M2.054 11V5.657L2.002 4.396H2.106L2.639 5.657L5.044 10.48H6.734L9.139 5.657L9.672 4.396H9.776L9.724 5.657V11H11.128V2.29H9.217L6.734 7.334L5.967 9.141H5.863L5.07 7.334L2.561 2.29H0.65V11H2.054ZM22.1292 11V9.739H16.5652V7.243H21.9343V5.995H16.5652V3.551H22.1292V2.29H15.1612V11H22.1292ZM27.3568 11V5.891L27.3048 4.383H27.4088L28.5008 5.917L32.4268 11H33.9348V2.29H32.5308V7.438L32.5958 9.011H32.4918L31.3608 7.386L27.4608 2.29H25.9528V11H27.3568ZM41.993 11.13C44.606 11.13 46.088 9.752 46.088 7.386V2.29H44.684V7.295C44.684 9.05 43.904 9.778 41.993 9.778C40.082 9.778 39.302 9.05 39.302 7.295V2.29H37.911V7.386C37.911 9.752 39.393 11.13 41.993 11.13Z" fill="white"/>
<rect x="55" y="2.2002" width="26" height="1.11012" fill="white"/>
<rect x="55" y="6.11035" width="26" height="1.11012" fill="white"/>
<rect x="55" y="10.0205" width="26" height="1.11012" fill="white"/>
</svg>
